<svg width="210" height="210" xmlns="http://www.w3.org/2000/svg" version="1.1"><circle cx="100" cy="100" r="100" stroke="black" fill="black" /><circle cx="100" cy="100" r="97" stroke="lemonchiffon" fill="lemonchiffon" /><line x1="100" y1="100" x2="109.930206" y2="5.520416" stroke="black" /><line x1="100" y1="100" x2="119.751610" y2="7.075981" stroke="black" /><line x1="100" y1="100" x2="129.356613" y2="9.649628" stroke="black" /><line x1="100" y1="100" x2="138.639984" y2="13.213181" stroke="black" /><line x1="100" y1="100" x2="155.839600" y2="23.143387" stroke="black" /><line x1="100" y1="100" x2="163.567413" y2="29.401245" stroke="black" /><line x1="100" y1="100" x2="170.598755" y2="36.432594" stroke="black" /><line x1="100" y1="100" x2="176.856613" y2="44.160397" stroke="black" /><line x1="100" y1="100" x2="186.786819" y2="61.360023" stroke="black" /><line x1="100" y1="100" x2="190.350372" y2="70.643387" stroke="black" /><line x1="100" y1="100" x2="192.924026" y2="80.248390" stroke="black" /><line x1="100" y1="100" x2="194.479584" y2="90.069801" stroke="black" /><line x1="100" y1="100" x2="194.479584" y2="109.930206" stroke="black" /><line x1="100" y1="100" x2="192.924026" y2="119.751602" stroke="black" /><line x1="100" y1="100" x2="190.350372" y2="129.356613" stroke="black" /><line x1="100" y1="100" x2="186.786819" y2="138.639984" stroke="black" /><line x1="100" y1="100" x2="176.856628" y2="155.839600" stroke="black" /><line x1="100" y1="100" x2="170.598755" y2="163.567413" stroke="black" /><line x1="100" y1="100" x2="163.567413" y2="170.598755" stroke="black" /><line x1="100" y1="100" x2="155.839600" y2="176.856628" stroke="black" /><line x1="100" y1="100" x2="138.639969" y2="186.786819" stroke="black" /><line x1="100" y1="100" x2="129.356613" y2="190.350372" stroke="black" /><line x1="100" y1="100" x2="119.751602" y2="192.924026" stroke="black" /><line x1="100" y1="100" x2="109.930206" y2="194.479584" stroke="black" /><line x1="100" y1="100" x2="90.069801" y2="194.479584" stroke="black" /><line x1="100" y1="100" x2="80.248383" y2="192.924011" stroke="black" /><line x1="100" y1="100" x2="70.643387" y2="190.350372" stroke="black" /><line x1="100" y1="100" x2="61.360031" y2="186.786835" stroke="black" /><line x1="100" y1="100" x2="44.160412" y2="176.856628" stroke="black" /><line x1="100" y1="100" x2="36.432594" y2="170.598755" stroke="black" /><line x1="100" y1="100" x2="29.401253" y2="163.567413" stroke="black" /><line x1="100" y1="100" x2="23.143402" y2="155.839615" stroke="black" /><line x1="100" y1="100" x2="13.213181" y2="138.639984" stroke="black" /><line x1="100" y1="100" x2="9.649635" y2="129.356628" stroke="black" /><line x1="100" y1="100" x2="7.075981" y2="119.751633" stroke="black" /><line x1="100" y1="100" x2="5.520416" y2="109.930191" stroke="black" /><line x1="100" y1="100" x2="5.520416" y2="90.069809" stroke="black" /><line x1="100" y1="100" x2="7.075974" y2="80.248413" stroke="black" /><line x1="100" y1="100" x2="9.649635" y2="70.643372" stroke="black" /><line x1="100" y1="100" x2="13.213181" y2="61.360016" stroke="black" /><line x1="100" y1="100" x2="23.143372" y2="44.160416" stroke="black" /><line x1="100" y1="100" x2="29.401253" y2="36.432583" stroke="black" /><line x1="100" y1="100" x2="36.432594" y2="29.401237" stroke="black" /><line x1="100" y1="100" x2="44.160397" y2="23.143387" stroke="black" /><line x1="100" y1="100" x2="61.360035" y2="13.213173" stroke="black" /><line x1="100" y1="100" x2="70.643387" y2="9.649628" stroke="black" /><line x1="100" y1="100" x2="80.248383" y2="7.075981" stroke="black" /><line x1="100" y1="100" x2="90.069778" y2="5.520424" stroke="black" /><circle cx="100" cy="100" r="90" stroke="lemonchiffon" fill="lemonchiffon" /><line x1="100" y1="100" x2="100.000000" y2="5.000000" stroke="black" /><line x1="100" y1="100" x2="147.500000" y2="17.727585" stroke="black" /><line x1="100" y1="100" x2="182.272415" y2="52.500004" stroke="black" /><line x1="100" y1="100" x2="195.000000" y2="100.000008" stroke="black" /><line x1="100" y1="100" x2="182.272400" y2="147.500000" stroke="black" /><line x1="100" y1="100" x2="147.500000" y2="182.272400" stroke="black" /><line x1="100" y1="100" x2="99.999992" y2="195.000000" stroke="black" /><line x1="100" y1="100" x2="52.500000" y2="182.272415" stroke="black" /><line x1="100" y1="100" x2="17.727585" y2="147.499985" stroke="black" /><line x1="100" y1="100" x2="5.000000" y2="100.000000" stroke="black" /><line x1="100" y1="100" x2="17.727585" y2="52.500008" stroke="black" /><line x1="100" y1="100" x2="52.499985" y2="17.727592" stroke="black" /><circle cx="100" cy="100" r="86" stroke="lemonchiffon" fill="lemonchiffon" /><line x1="100" y1="100" x2="170.000000" y2="100.000000" stroke="lightcoral" /><line x1="100" y1="100" x2="98.429390" y2="159.979431" stroke="teal" /><line x1="100" y1="100" x2="64.721870" y2="64.567627" stroke="black" /><circle cx="100" cy="100" r="5" stroke="black" fill="teal" /><circle cx="100" cy="100" r="4" stroke="teal" fill="lightcoral" /></svg>