<svg width="3500" height="2000" xmlns="http://www.w3.org/2000/svg" version="1.1"><rect x="0" y="0" width="3500" height="2000" stroke="black" fill="azure"/><rect x="0" y="1970" width="3500" height="2000" stroke="black" fill="green"/><polygon points="3050, 1970 3100, 1870 3400, 1870 3450, 1970" stroke="black" fill="saddlebrown"/><polygon points="850, 1970 800, 1870 500, 1870 450, 1970" stroke="black" fill="saddlebrown"/><rect x="3200" y="1450" width="100" height="420" stroke="black" fill="gray"/><rect x="3050" y="1350" width="400" height="100" stroke="black" fill="gray"/><circle cx="250.000000" cy="1700.000000" r="50" stroke="black" fill="red" /><circle cx="3250.000000" cy="1300.000000" r="50" stroke="black" fill="green" /><polygon points="600, 1870 600, 1570 400, 1370 450, 1320 650, 1517 850, 1320 900, 1370 700, 1570 700, 1870" stroke="black" fill="sienna"/><line x1="525" x2="250.000000" y1="1395" y2="1700.000000" stroke="maroon" stroke-width="15"/><line x1="790" x2="250.000000" y1="1395" y2="1700.000000" stroke="maroon" stroke-width="15"/><line x1="780" x2="830" y1="1395" y2="1440" stroke="maroon" stroke-width="15"/><circle cx="3157.408969" cy="1336.386727" r="50" stroke="black" fill="red" fill-opacity="0.1"/><circle cx="3157.408969" cy="1336.386727" r="5" stroke="black" fill="black" /><line x1="494.320081" x2="250.000000" y1="1615.979763" y2="1700.000000" stroke="black" stroke-width="3"/><line x1="738.640163" x2="494.320081" y1="1541.769525" y2="1615.979763" stroke="black" stroke-width="3"/><line x1="982.960244" x2="738.640163" y1="1477.369288" y2="1541.769525" stroke="black" stroke-width="3"/><line x1="1227.280326" x2="982.960244" y1="1422.779051" y2="1477.369288" stroke="black" stroke-width="3"/><line x1="1471.600407" x2="1227.280326" y1="1377.998814" y2="1422.779051" stroke="black" stroke-width="3"/><line x1="1715.920488" x2="1471.600407" y1="1343.028576" y2="1377.998814" stroke="black" stroke-width="3"/><line x1="1960.240570" x2="1715.920488" y1="1317.868339" y2="1343.028576" stroke="black" stroke-width="3"/><line x1="2204.560651" x2="1960.240570" y1="1302.518102" y2="1317.868339" stroke="black" stroke-width="3"/><line x1="2448.880733" x2="2204.560651" y1="1296.977865" y2="1302.518102" stroke="black" stroke-width="3"/><line x1="2693.200814" x2="2448.880733" y1="1301.247627" y2="1296.977865" stroke="black" stroke-width="3"/><line x1="2937.520895" x2="2693.200814" y1="1315.327390" y2="1301.247627" stroke="black" stroke-width="3"/><line x1="3181.840977" x2="2937.520895" y1="1339.217153" y2="1315.327390" stroke="black" stroke-width="3"/><line x1="3426.161058" x2="3181.840977" y1="1372.916916" y2="1339.217153" stroke="black" stroke-width="3"/><line x1="3670.481140" x2="3426.161058" y1="1416.426678" y2="1372.916916" stroke="black" stroke-width="3"/><circle cx="3167.745588" cy="1286.713705" r="50" stroke="black" fill="red" fill-opacity="0.1"/><circle cx="3167.745588" cy="1286.713705" r="5" stroke="black" fill="black" /><line x1="503.717008" x2="250.000000" y1="1612.559561" y2="1700.000000" stroke="black" stroke-width="3"/><line x1="757.434015" x2="503.717008" y1="1534.929123" y2="1612.559561" stroke="black" stroke-width="3"/><line x1="1011.151023" x2="757.434015" y1="1467.108684" y2="1534.929123" stroke="black" stroke-width="3"/><line x1="1264.868030" x2="1011.151023" y1="1409.098245" y2="1467.108684" stroke="black" stroke-width="3"/><line x1="1518.585038" x2="1264.868030" y1="1360.897807" y2="1409.098245" stroke="black" stroke-width="3"/><line x1="1772.302046" x2="1518.585038" y1="1322.507368" y2="1360.897807" stroke="black" stroke-width="3"/><line x1="2026.019053" x2="1772.302046" y1="1293.926929" y2="1322.507368" stroke="black" stroke-width="3"/><line x1="2279.736061" x2="2026.019053" y1="1275.156490" y2="1293.926929" stroke="black" stroke-width="3"/><line x1="2533.453069" x2="2279.736061" y1="1266.196052" y2="1275.156490" stroke="black" stroke-width="3"/><line x1="2787.170076" x2="2533.453069" y1="1267.045613" y2="1266.196052" stroke="black" stroke-width="3"/><line x1="3040.887084" x2="2787.170076" y1="1277.705174" y2="1267.045613" stroke="black" stroke-width="3"/><line x1="3294.604091" x2="3040.887084" y1="1298.174736" y2="1277.705174" stroke="black" stroke-width="3"/><line x1="3548.321099" x2="3294.604091" y1="1328.454297" y2="1298.174736" stroke="black" stroke-width="3"/><circle cx="3170.564665" cy="1241.346445" r="50" stroke="black" fill="red" fill-opacity="0.1"/><circle cx="3170.564665" cy="1241.346445" r="5" stroke="black" fill="black" /><line x1="513.113934" x2="250.000000" y1="1609.139360" y2="1700.000000" stroke="black" stroke-width="3"/><line x1="776.227868" x2="513.113934" y1="1528.088720" y2="1609.139360" stroke="black" stroke-width="3"/><line x1="1039.341801" x2="776.227868" y1="1456.848080" y2="1528.088720" stroke="black" stroke-width="3"/><line x1="1302.455735" x2="1039.341801" y1="1395.417439" y2="1456.848080" stroke="black" stroke-width="3"/><line x1="1565.569669" x2="1302.455735" y1="1343.796799" y2="1395.417439" stroke="black" stroke-width="3"/><line x1="1828.683603" x2="1565.569669" y1="1301.986159" y2="1343.796799" stroke="black" stroke-width="3"/><line x1="2091.797537" x2="1828.683603" y1="1269.985519" y2="1301.986159" stroke="black" stroke-width="3"/><line x1="2354.911471" x2="2091.797537" y1="1247.794879" y2="1269.985519" stroke="black" stroke-width="3"/><line x1="2618.025404" x2="2354.911471" y1="1235.414239" y2="1247.794879" stroke="black" stroke-width="3"/><line x1="2881.139338" x2="2618.025404" y1="1232.843599" y2="1235.414239" stroke="black" stroke-width="3"/><line x1="3144.253272" x2="2881.139338" y1="1240.082959" y2="1232.843599" stroke="black" stroke-width="3"/><line x1="3407.367206" x2="3144.253272" y1="1257.132318" y2="1240.082959" stroke="black" stroke-width="3"/><line x1="3670.481140" x2="3407.367206" y1="1283.991678" y2="1257.132318" stroke="black" stroke-width="3"/><circle cx="3247.619460" cy="1202.460743" r="50" stroke="black" fill="red" fill-opacity="0.1"/><circle cx="3247.619460" cy="1202.460743" r="5" stroke="black" fill="black" /><line x1="522.510860" x2="250.000000" y1="1605.719158" y2="1700.000000" stroke="black" stroke-width="3"/><line x1="795.021720" x2="522.510860" y1="1521.248317" y2="1605.719158" stroke="black" stroke-width="3"/><line x1="1067.532580" x2="795.021720" y1="1446.587475" y2="1521.248317" stroke="black" stroke-width="3"/><line x1="1340.043440" x2="1067.532580" y1="1381.736634" y2="1446.587475" stroke="black" stroke-width="3"/><line x1="1612.554300" x2="1340.043440" y1="1326.695792" y2="1381.736634" stroke="black" stroke-width="3"/><line x1="1885.065160" x2="1612.554300" y1="1281.464951" y2="1326.695792" stroke="black" stroke-width="3"/><line x1="2157.576020" x2="1885.065160" y1="1246.044109" y2="1281.464951" stroke="black" stroke-width="3"/><line x1="2430.086880" x2="2157.576020" y1="1220.433267" y2="1246.044109" stroke="black" stroke-width="3"/><line x1="2702.597740" x2="2430.086880" y1="1204.632426" y2="1220.433267" stroke="black" stroke-width="3"/><line x1="2975.108600" x2="2702.597740" y1="1198.641584" y2="1204.632426" stroke="black" stroke-width="3"/><line x1="3247.619460" x2="2975.108600" y1="1202.460743" y2="1198.641584" stroke="black" stroke-width="3"/><line x1="3520.130320" x2="3247.619460" y1="1216.089901" y2="1202.460743" stroke="black" stroke-width="3"/><circle cx="3168.311074" cy="1300.549197" r="50" stroke="black" fill="red" fill-opacity="0.1"/><circle cx="3168.311074" cy="1300.549197" r="5" stroke="black" fill="black" /><line x1="458.450791" x2="250.000000" y1="1607.702800" y2="1700.000000" stroke="black" stroke-width="3"/><line x1="666.901582" x2="458.450791" y1="1525.215600" y2="1607.702800" stroke="black" stroke-width="3"/><line x1="875.352373" x2="666.901582" y1="1452.538399" y2="1525.215600" stroke="black" stroke-width="3"/><line x1="1083.803164" x2="875.352373" y1="1389.671199" y2="1452.538399" stroke="black" stroke-width="3"/><line x1="1292.253955" x2="1083.803164" y1="1336.613999" y2="1389.671199" stroke="black" stroke-width="3"/><line x1="1500.704746" x2="1292.253955" y1="1293.366799" y2="1336.613999" stroke="black" stroke-width="3"/><line x1="1709.155537" x2="1500.704746" y1="1259.929599" y2="1293.366799" stroke="black" stroke-width="3"/><line x1="1917.606328" x2="1709.155537" y1="1236.302398" y2="1259.929599" stroke="black" stroke-width="3"/><line x1="2126.057119" x2="1917.606328" y1="1222.485198" y2="1236.302398" stroke="black" stroke-width="3"/><line x1="2334.507910" x2="2126.057119" y1="1218.477998" y2="1222.485198" stroke="black" stroke-width="3"/><line x1="2542.958701" x2="2334.507910" y1="1224.280798" y2="1218.477998" stroke="black" stroke-width="3"/><line x1="2751.409492" x2="2542.958701" y1="1239.893598" y2="1224.280798" stroke="black" stroke-width="3"/><line x1="2959.860283" x2="2751.409492" y1="1265.316397" y2="1239.893598" stroke="black" stroke-width="3"/><line x1="3168.311074" x2="2959.860283" y1="1300.549197" y2="1265.316397" stroke="black" stroke-width="3"/><line x1="3376.761865" x2="3168.311074" y1="1345.591997" y2="1300.549197" stroke="black" stroke-width="3"/><line x1="3585.212656" x2="3376.761865" y1="1400.444797" y2="1345.591997" stroke="black" stroke-width="3"/><circle cx="3186.437230" cy="1224.653082" r="50" stroke="black" fill="red" fill-opacity="0.1"/><circle cx="3186.437230" cy="1224.653082" r="5" stroke="black" fill="black" /><line x1="467.513869" x2="250.000000" y1="1603.476617" y2="1700.000000" stroke="black" stroke-width="3"/><line x1="685.027738" x2="467.513869" y1="1516.763234" y2="1603.476617" stroke="black" stroke-width="3"/><line x1="902.541607" x2="685.027738" y1="1439.859852" y2="1516.763234" stroke="black" stroke-width="3"/><line x1="1120.055476" x2="902.541607" y1="1372.766469" y2="1439.859852" stroke="black" stroke-width="3"/><line x1="1337.569344" x2="1120.055476" y1="1315.483086" y2="1372.766469" stroke="black" stroke-width="3"/><line x1="1555.083213" x2="1337.569344" y1="1268.009703" y2="1315.483086" stroke="black" stroke-width="3"/><line x1="1772.597082" x2="1555.083213" y1="1230.346320" y2="1268.009703" stroke="black" stroke-width="3"/><line x1="1990.110951" x2="1772.597082" y1="1202.492937" y2="1230.346320" stroke="black" stroke-width="3"/><line x1="2207.624820" x2="1990.110951" y1="1184.449555" y2="1202.492937" stroke="black" stroke-width="3"/><line x1="2425.138689" x2="2207.624820" y1="1176.216172" y2="1184.449555" stroke="black" stroke-width="3"/><line x1="2642.652558" x2="2425.138689" y1="1177.792789" y2="1176.216172" stroke="black" stroke-width="3"/><line x1="2860.166427" x2="2642.652558" y1="1189.179406" y2="1177.792789" stroke="black" stroke-width="3"/><line x1="3077.680296" x2="2860.166427" y1="1210.376023" y2="1189.179406" stroke="black" stroke-width="3"/><line x1="3295.194164" x2="3077.680296" y1="1241.382641" y2="1210.376023" stroke="black" stroke-width="3"/><line x1="3512.708033" x2="3295.194164" y1="1282.199258" y2="1241.382641" stroke="black" stroke-width="3"/><circle cx="3159.845357" cy="1275.680000" r="50" stroke="black" fill="red" fill-opacity="0.1"/><circle cx="3159.845357" cy="1275.680000" r="5" stroke="black" fill="black" /><line x1="431.865335" x2="250.000000" y1="1599.905000" y2="1700.000000" stroke="black" stroke-width="3"/><line x1="613.730670" x2="431.865335" y1="1509.620000" y2="1599.905000" stroke="black" stroke-width="3"/><line x1="795.596004" x2="613.730670" y1="1429.145000" y2="1509.620000" stroke="black" stroke-width="3"/><line x1="977.461339" x2="795.596004" y1="1358.480000" y2="1429.145000" stroke="black" stroke-width="3"/><line x1="1159.326674" x2="977.461339" y1="1297.625000" y2="1358.480000" stroke="black" stroke-width="3"/><line x1="1341.192009" x2="1159.326674" y1="1246.580000" y2="1297.625000" stroke="black" stroke-width="3"/><line x1="1523.057344" x2="1341.192009" y1="1205.345000" y2="1246.580000" stroke="black" stroke-width="3"/><line x1="1704.922678" x2="1523.057344" y1="1173.920000" y2="1205.345000" stroke="black" stroke-width="3"/><line x1="1886.788013" x2="1704.922678" y1="1152.305000" y2="1173.920000" stroke="black" stroke-width="3"/><line x1="2068.653348" x2="1886.788013" y1="1140.500000" y2="1152.305000" stroke="black" stroke-width="3"/><line x1="2250.518683" x2="2068.653348" y1="1138.505000" y2="1140.500000" stroke="black" stroke-width="3"/><line x1="2432.384018" x2="2250.518683" y1="1146.320000" y2="1138.505000" stroke="black" stroke-width="3"/><line x1="2614.249352" x2="2432.384018" y1="1163.945000" y2="1146.320000" stroke="black" stroke-width="3"/><line x1="2796.114687" x2="2614.249352" y1="1191.380000" y2="1163.945000" stroke="black" stroke-width="3"/><line x1="2977.980022" x2="2796.114687" y1="1228.625000" y2="1191.380000" stroke="black" stroke-width="3"/><line x1="3159.845357" x2="2977.980022" y1="1275.680000" y2="1228.625000" stroke="black" stroke-width="3"/><line x1="3341.710692" x2="3159.845357" y1="1332.545000" y2="1275.680000" stroke="black" stroke-width="3"/><line x1="3523.576026" x2="3341.710692" y1="1399.220000" y2="1332.545000" stroke="black" stroke-width="3"/><circle cx="3198.947359" cy="1224.344829" r="50" stroke="black" fill="red" fill-opacity="0.1"/><circle cx="3198.947359" cy="1224.344829" r="5" stroke="black" fill="black" /><line x1="413.830409" x2="250.000000" y1="1590.189713" y2="1700.000000" stroke="black" stroke-width="3"/><line x1="577.660818" x2="413.830409" y1="1490.189425" y2="1590.189713" stroke="black" stroke-width="3"/><line x1="741.491227" x2="577.660818" y1="1399.999138" y2="1490.189425" stroke="black" stroke-width="3"/><line x1="905.321635" x2="741.491227" y1="1319.618851" y2="1399.999138" stroke="black" stroke-width="3"/><line x1="1069.152044" x2="905.321635" y1="1249.048564" y2="1319.618851" stroke="black" stroke-width="3"/><line x1="1232.982453" x2="1069.152044" y1="1188.288276" y2="1249.048564" stroke="black" stroke-width="3"/><line x1="1396.812862" x2="1232.982453" y1="1137.337989" y2="1188.288276" stroke="black" stroke-width="3"/><line x1="1560.643271" x2="1396.812862" y1="1096.197702" y2="1137.337989" stroke="black" stroke-width="3"/><line x1="1724.473680" x2="1560.643271" y1="1064.867415" y2="1096.197702" stroke="black" stroke-width="3"/><line x1="1888.304089" x2="1724.473680" y1="1043.347127" y2="1064.867415" stroke="black" stroke-width="3"/><line x1="2052.134497" x2="1888.304089" y1="1031.636840" y2="1043.347127" stroke="black" stroke-width="3"/><line x1="2215.964906" x2="2052.134497" y1="1029.736553" y2="1031.636840" stroke="black" stroke-width="3"/><line x1="2379.795315" x2="2215.964906" y1="1037.646265" y2="1029.736553" stroke="black" stroke-width="3"/><line x1="2543.625724" x2="2379.795315" y1="1055.365978" y2="1037.646265" stroke="black" stroke-width="3"/><line x1="2707.456133" x2="2543.625724" y1="1082.895691" y2="1055.365978" stroke="black" stroke-width="3"/><line x1="2871.286542" x2="2707.456133" y1="1120.235404" y2="1082.895691" stroke="black" stroke-width="3"/><line x1="3035.116951" x2="2871.286542" y1="1167.385116" y2="1120.235404" stroke="black" stroke-width="3"/><line x1="3198.947359" x2="3035.116951" y1="1224.344829" y2="1167.385116" stroke="black" stroke-width="3"/><line x1="3362.777768" x2="3198.947359" y1="1291.114542" y2="1224.344829" stroke="black" stroke-width="3"/><line x1="3526.608177" x2="3362.777768" y1="1367.694255" y2="1291.114542" stroke="black" stroke-width="3"/><circle cx="3190.078573" cy="1234.417354" r="50" stroke="black" fill="red" fill-opacity="0.1"/><circle cx="3190.078573" cy="1234.417354" r="5" stroke="black" fill="black" /><line x1="395.548444" x2="250.000000" y1="1582.775354" y2="1700.000000" stroke="black" stroke-width="3"/><line x1="541.096888" x2="395.548444" y1="1475.360708" y2="1582.775354" stroke="black" stroke-width="3"/><line x1="686.645333" x2="541.096888" y1="1377.756062" y2="1475.360708" stroke="black" stroke-width="3"/><line x1="832.193777" x2="686.645333" y1="1289.961417" y2="1377.756062" stroke="black" stroke-width="3"/><line x1="977.742221" x2="832.193777" y1="1211.976771" y2="1289.961417" stroke="black" stroke-width="3"/><line x1="1123.290665" x2="977.742221" y1="1143.802125" y2="1211.976771" stroke="black" stroke-width="3"/><line x1="1268.839109" x2="1123.290665" y1="1085.437479" y2="1143.802125" stroke="black" stroke-width="3"/><line x1="1414.387554" x2="1268.839109" y1="1036.882833" y2="1085.437479" stroke="black" stroke-width="3"/><line x1="1559.935998" x2="1414.387554" y1="998.138187" y2="1036.882833" stroke="black" stroke-width="3"/><line x1="1705.484442" x2="1559.935998" y1="969.203542" y2="998.138187" stroke="black" stroke-width="3"/><line x1="1851.032886" x2="1705.484442" y1="950.078896" y2="969.203542" stroke="black" stroke-width="3"/><line x1="1996.581330" x2="1851.032886" y1="940.764250" y2="950.078896" stroke="black" stroke-width="3"/><line x1="2142.129775" x2="1996.581330" y1="941.259604" y2="940.764250" stroke="black" stroke-width="3"/><line x1="2287.678219" x2="2142.129775" y1="951.564958" y2="941.259604" stroke="black" stroke-width="3"/><line x1="2433.226663" x2="2287.678219" y1="971.680312" y2="951.564958" stroke="black" stroke-width="3"/><line x1="2578.775107" x2="2433.226663" y1="1001.605667" y2="971.680312" stroke="black" stroke-width="3"/><line x1="2724.323551" x2="2578.775107" y1="1041.341021" y2="1001.605667" stroke="black" stroke-width="3"/><line x1="2869.871995" x2="2724.323551" y1="1090.886375" y2="1041.341021" stroke="black" stroke-width="3"/><line x1="3015.420440" x2="2869.871995" y1="1150.241729" y2="1090.886375" stroke="black" stroke-width="3"/><line x1="3160.968884" x2="3015.420440" y1="1219.407083" y2="1150.241729" stroke="black" stroke-width="3"/><line x1="3306.517328" x2="3160.968884" y1="1298.382437" y2="1219.407083" stroke="black" stroke-width="3"/><line x1="3452.065772" x2="3306.517328" y1="1387.167792" y2="1298.382437" stroke="black" stroke-width="3"/><line x1="3597.614216" x2="3452.065772" y1="1485.763146" y2="1387.167792" stroke="black" stroke-width="3"/><circle cx="3177.422074" cy="1367.322926" r="50" stroke="black" fill="red" fill-opacity="0.1"/><circle cx="3177.422074" cy="1367.322926" r="5" stroke="black" fill="black" /><line x1="377.279221" x2="250.000000" y1="1577.625779" y2="1700.000000" stroke="black" stroke-width="3"/><line x1="504.558441" x2="377.279221" y1="1465.061559" y2="1577.625779" stroke="black" stroke-width="3"/><line x1="631.837662" x2="504.558441" y1="1362.307338" y2="1465.061559" stroke="black" stroke-width="3"/><line x1="759.116882" x2="631.837662" y1="1269.363118" y2="1362.307338" stroke="black" stroke-width="3"/><line x1="886.396103" x2="759.116882" y1="1186.228897" y2="1269.363118" stroke="black" stroke-width="3"/><line x1="1013.675324" x2="886.396103" y1="1112.904676" y2="1186.228897" stroke="black" stroke-width="3"/><line x1="1140.954544" x2="1013.675324" y1="1049.390456" y2="1112.904676" stroke="black" stroke-width="3"/><line x1="1268.233765" x2="1140.954544" y1="995.686235" y2="1049.390456" stroke="black" stroke-width="3"/><line x1="1395.512986" x2="1268.233765" y1="951.792014" y2="995.686235" stroke="black" stroke-width="3"/><line x1="1522.792206" x2="1395.512986" y1="917.707794" y2="951.792014" stroke="black" stroke-width="3"/><line x1="1650.071427" x2="1522.792206" y1="893.433573" y2="917.707794" stroke="black" stroke-width="3"/><line x1="1777.350647" x2="1650.071427" y1="878.969353" y2="893.433573" stroke="black" stroke-width="3"/><line x1="1904.629868" x2="1777.350647" y1="874.315132" y2="878.969353" stroke="black" stroke-width="3"/><line x1="2031.909089" x2="1904.629868" y1="879.470911" y2="874.315132" stroke="black" stroke-width="3"/><line x1="2159.188309" x2="2031.909089" y1="894.436691" y2="879.470911" stroke="black" stroke-width="3"/><line x1="2286.467530" x2="2159.188309" y1="919.212470" y2="894.436691" stroke="black" stroke-width="3"/><line x1="2413.746750" x2="2286.467530" y1="953.798250" y2="919.212470" stroke="black" stroke-width="3"/><line x1="2541.025971" x2="2413.746750" y1="998.194029" y2="953.798250" stroke="black" stroke-width="3"/><line x1="2668.305192" x2="2541.025971" y1="1052.399808" y2="998.194029" stroke="black" stroke-width="3"/><line x1="2795.584412" x2="2668.305192" y1="1116.415588" y2="1052.399808" stroke="black" stroke-width="3"/><line x1="2922.863633" x2="2795.584412" y1="1190.241367" y2="1116.415588" stroke="black" stroke-width="3"/><line x1="3050.142853" x2="2922.863633" y1="1273.877147" y2="1190.241367" stroke="black" stroke-width="3"/><line x1="3177.422074" x2="3050.142853" y1="1367.322926" y2="1273.877147" stroke="black" stroke-width="3"/><line x1="3304.701295" x2="3177.422074" y1="1470.578705" y2="1367.322926" stroke="black" stroke-width="3"/><line x1="3431.980515" x2="3304.701295" y1="1583.644485" y2="1470.578705" stroke="black" stroke-width="3"/><line x1="3559.259736" x2="3431.980515" y1="1706.520264" y2="1583.644485" stroke="black" stroke-width="3"/><circle cx="3165.684598" cy="1340.093606" r="50" stroke="black" fill="red" fill-opacity="0.1"/><circle cx="3165.684598" cy="1340.093606" r="5" stroke="black" fill="black" /><line x1="365.701770" x2="250.000000" y1="1567.017000" y2="1700.000000" stroke="black" stroke-width="3"/><line x1="481.403539" x2="365.701770" y1="1443.844000" y2="1567.017000" stroke="black" stroke-width="3"/><line x1="597.105309" x2="481.403539" y1="1330.481001" y2="1443.844000" stroke="black" stroke-width="3"/><line x1="712.807079" x2="597.105309" y1="1226.928001" y2="1330.481001" stroke="black" stroke-width="3"/><line x1="828.508849" x2="712.807079" y1="1133.185001" y2="1226.928001" stroke="black" stroke-width="3"/><line x1="944.210618" x2="828.508849" y1="1049.252001" y2="1133.185001" stroke="black" stroke-width="3"/><line x1="1059.912388" x2="944.210618" y1="975.129002" y2="1049.252001" stroke="black" stroke-width="3"/><line x1="1175.614158" x2="1059.912388" y1="910.816002" y2="975.129002" stroke="black" stroke-width="3"/><line x1="1291.315928" x2="1175.614158" y1="856.313002" y2="910.816002" stroke="black" stroke-width="3"/><line x1="1407.017697" x2="1291.315928" y1="811.620002" y2="856.313002" stroke="black" stroke-width="3"/><line x1="1522.719467" x2="1407.017697" y1="776.737003" y2="811.620002" stroke="black" stroke-width="3"/><line x1="1638.421237" x2="1522.719467" y1="751.664003" y2="776.737003" stroke="black" stroke-width="3"/><line x1="1754.123007" x2="1638.421237" y1="736.401003" y2="751.664003" stroke="black" stroke-width="3"/><line x1="1869.824776" x2="1754.123007" y1="730.948003" y2="736.401003" stroke="black" stroke-width="3"/><line x1="1985.526546" x2="1869.824776" y1="735.305004" y2="730.948003" stroke="black" stroke-width="3"/><line x1="2101.228316" x2="1985.526546" y1="749.472004" y2="735.305004" stroke="black" stroke-width="3"/><line x1="2216.930086" x2="2101.228316" y1="773.449004" y2="749.472004" stroke="black" stroke-width="3"/><line x1="2332.631855" x2="2216.930086" y1="807.236004" y2="773.449004" stroke="black" stroke-width="3"/><line x1="2448.333625" x2="2332.631855" y1="850.833005" y2="807.236004" stroke="black" stroke-width="3"/><line x1="2564.035395" x2="2448.333625" y1="904.240005" y2="850.833005" stroke="black" stroke-width="3"/><line x1="2679.737165" x2="2564.035395" y1="967.457005" y2="904.240005" stroke="black" stroke-width="3"/><line x1="2795.438934" x2="2679.737165" y1="1040.484005" y2="967.457005" stroke="black" stroke-width="3"/><line x1="2911.140704" x2="2795.438934" y1="1123.321005" y2="1040.484005" stroke="black" stroke-width="3"/><line x1="3026.842474" x2="2911.140704" y1="1215.968006" y2="1123.321005" stroke="black" stroke-width="3"/><line x1="3142.544244" x2="3026.842474" y1="1318.425006" y2="1215.968006" stroke="black" stroke-width="3"/><line x1="3258.246013" x2="3142.544244" y1="1430.692006" y2="1318.425006" stroke="black" stroke-width="3"/><line x1="3373.947783" x2="3258.246013" y1="1552.769006" y2="1430.692006" stroke="black" stroke-width="3"/><line x1="3489.649553" x2="3373.947783" y1="1684.656007" y2="1552.769006" stroke="black" stroke-width="3"/><line x1="3605.351323" x2="3489.649553" y1="1826.353007" y2="1684.656007" stroke="black" stroke-width="3"/><circle cx="3166.500000" cy="1271.387270" r="50" stroke="black" fill="red" fill-opacity="0.1"/><circle cx="3166.500000" cy="1271.387270" r="5" stroke="black" fill="black" /><line x1="345.000000" x2="250.000000" y1="1540.360173" y2="1700.000000" stroke="black" stroke-width="3"/><line x1="440.000000" x2="345.000000" y1="1390.530347" y2="1540.360173" stroke="black" stroke-width="3"/><line x1="535.000000" x2="440.000000" y1="1250.510520" y2="1390.530347" stroke="black" stroke-width="3"/><line x1="630.000000" x2="535.000000" y1="1120.300693" y2="1250.510520" stroke="black" stroke-width="3"/><line x1="725.000000" x2="630.000000" y1="999.900866" y2="1120.300693" stroke="black" stroke-width="3"/><line x1="820.000000" x2="725.000000" y1="889.311040" y2="999.900866" stroke="black" stroke-width="3"/><line x1="915.000000" x2="820.000000" y1="788.531213" y2="889.311040" stroke="black" stroke-width="3"/><line x1="1010.000000" x2="915.000000" y1="697.561386" y2="788.531213" stroke="black" stroke-width="3"/><line x1="1105.000000" x2="1010.000000" y1="616.401560" y2="697.561386" stroke="black" stroke-width="3"/><line x1="1200.000000" x2="1105.000000" y1="545.051733" y2="616.401560" stroke="black" stroke-width="3"/><line x1="1295.000000" x2="1200.000000" y1="483.511906" y2="545.051733" stroke="black" stroke-width="3"/><line x1="1390.000000" x2="1295.000000" y1="431.782079" y2="483.511906" stroke="black" stroke-width="3"/><line x1="1485.000000" x2="1390.000000" y1="389.862253" y2="431.782079" stroke="black" stroke-width="3"/><line x1="1580.000000" x2="1485.000000" y1="357.752426" y2="389.862253" stroke="black" stroke-width="3"/><line x1="1675.000000" x2="1580.000000" y1="335.452599" y2="357.752426" stroke="black" stroke-width="3"/><line x1="1770.000000" x2="1675.000000" y1="322.962772" y2="335.452599" stroke="black" stroke-width="3"/><line x1="1865.000000" x2="1770.000000" y1="320.282946" y2="322.962772" stroke="black" stroke-width="3"/><line x1="1960.000000" x2="1865.000000" y1="327.413119" y2="320.282946" stroke="black" stroke-width="3"/><line x1="2055.000000" x2="1960.000000" y1="344.353292" y2="327.413119" stroke="black" stroke-width="3"/><line x1="2150.000000" x2="2055.000000" y1="371.103466" y2="344.353292" stroke="black" stroke-width="3"/><line x1="2245.000000" x2="2150.000000" y1="407.663639" y2="371.103466" stroke="black" stroke-width="3"/><line x1="2340.000000" x2="2245.000000" y1="454.033812" y2="407.663639" stroke="black" stroke-width="3"/><line x1="2435.000000" x2="2340.000000" y1="510.213985" y2="454.033812" stroke="black" stroke-width="3"/><line x1="2530.000000" x2="2435.000000" y1="576.204159" y2="510.213985" stroke="black" stroke-width="3"/><line x1="2625.000000" x2="2530.000000" y1="652.004332" y2="576.204159" stroke="black" stroke-width="3"/><line x1="2720.000000" x2="2625.000000" y1="737.614505" y2="652.004332" stroke="black" stroke-width="3"/><line x1="2815.000000" x2="2720.000000" y1="833.034679" y2="737.614505" stroke="black" stroke-width="3"/><line x1="2910.000000" x2="2815.000000" y1="938.264852" y2="833.034679" stroke="black" stroke-width="3"/><line x1="3005.000000" x2="2910.000000" y1="1053.305025" y2="938.264852" stroke="black" stroke-width="3"/><line x1="3100.000000" x2="3005.000000" y1="1178.155198" y2="1053.305025" stroke="black" stroke-width="3"/><line x1="3195.000000" x2="3100.000000" y1="1312.815372" y2="1178.155198" stroke="black" stroke-width="3"/><line x1="3290.000000" x2="3195.000000" y1="1457.285545" y2="1312.815372" stroke="black" stroke-width="3"/><line x1="3385.000000" x2="3290.000000" y1="1611.565718" y2="1457.285545" stroke="black" stroke-width="3"/><line x1="3480.000000" x2="3385.000000" y1="1775.655892" y2="1611.565718" stroke="black" stroke-width="3"/><line x1="3575.000000" x2="3480.000000" y1="1949.556065" y2="1775.655892" stroke="black" stroke-width="3"/></svg>